<svg width="192" height="38" viewBox="0 0 192 38" fill="none" xmlns="http://www.w3.org/2000/svg">
<g clip-path="url(#clip0)">
<path d="M55.3846 17.4242C52.4614 17.4242 50.6905 15.2646 50.6905 11.8453C50.6905 8.42599 52.4331 6.24797 55.3846 6.24797C56.7936 6.27103 58.1533 6.75889 59.2428 7.63231L59.5403 5.65271C58.3224 4.84916 56.8772 4.43922 55.4082 4.48064C51.3233 4.48064 48.6504 7.46619 48.6504 11.8638C48.6504 16.2613 51.2808 19.21 55.3704 19.21C56.9484 19.2022 58.4854 18.7188 59.7717 17.8256L59.4789 15.9798C58.305 16.8658 56.8722 17.3621 55.3893 17.3965" fill="#FFFCF5"/>
<path d="M64.9474 10.2441C64.3571 15.2462 63.4976 16.7874 61.0703 17.4703L61.3678 19.2607C64.8246 18.5363 66.128 16.5982 66.8647 10.4933L67.337 6.50178H71.3841V18.9516H73.3628V4.74829H65.5991L64.9474 10.2441Z" fill="#FFFCF5"/>
<path d="M82.1702 4.48071C78.0806 4.48071 75.4502 7.46626 75.4502 11.8638C75.4502 16.2614 78.0334 19.21 82.123 19.21C86.2126 19.21 88.8383 16.206 88.8383 11.8269C88.8383 7.4478 86.2598 4.48071 82.1702 4.48071ZM82.1702 17.4473C79.3084 17.4473 77.5139 15.2647 77.5139 11.8454C77.5139 8.42607 79.2801 6.24805 82.1702 6.24805C85.0603 6.24805 86.8265 8.43068 86.8265 11.8454C86.8265 15.2601 85.0037 17.4473 82.1324 17.4473" fill="#FFFCF5"/>
<path d="M97.0223 11.37C97.6447 11.1608 98.1824 10.7628 98.557 10.234C98.9316 9.70529 99.1236 9.07342 99.1049 8.43057C99.1049 6.24794 97.6079 4.73901 94.4061 4.73901H90.8926V18.9469H94.3683C97.7165 18.9469 99.7377 17.6272 99.7377 14.7939C99.7377 12.9204 98.6421 11.8499 97.0223 11.3746V11.37ZM92.8335 6.3956H94.373C96.347 6.3956 97.1734 7.19852 97.1734 8.49056C97.1734 9.8749 96.1392 10.7147 94.2266 10.7147H92.8382L92.8335 6.3956ZM94.5194 17.3042H92.8335V12.3021H94.4486C96.6209 12.3021 97.7968 13.1881 97.7968 14.8308C97.7968 16.4736 96.5973 17.3042 94.5147 17.3042" fill="#FFFCF5"/>
<path d="M107.671 4.48071C103.582 4.48071 100.951 7.46626 100.951 11.8638C100.951 16.2614 103.539 19.21 107.629 19.21C111.718 19.21 114.344 16.206 114.344 11.8269C114.344 7.4478 111.761 4.48071 107.671 4.48071ZM107.643 17.4473C104.786 17.4473 102.991 15.2647 102.991 11.8454C102.991 8.42607 104.757 6.24805 107.643 6.24805C110.528 6.24805 112.304 8.43068 112.304 11.8454C112.304 15.2601 110.505 17.4473 107.629 17.4473" fill="#FFFCF5"/>
<path d="M138.032 4.74825H135.586L129.957 11.2685L130.028 4.74825H128.044L128.106 11.2685L122.377 4.60059L120.252 5.0528L125.957 11.4761L119.615 18.9469H122.056L128.106 11.6192L128.044 18.9469H130.028L129.957 11.6192L136.176 19.0946L138.301 18.6377L132.11 11.3931L138.032 4.74825Z" fill="#FFFCF5"/>
<path d="M142.008 15.9014V4.74829H140.053V18.947H142.074L149.404 7.79383V18.947H151.359V4.74829H149.333L142.008 15.9014Z" fill="#FFFCF5"/>
<path d="M160.091 11.4392C161.673 10.9269 162.683 9.9533 162.683 8.20903C162.683 6.06793 160.917 4.51747 158.069 4.51747C156.624 4.49347 155.2 4.85737 153.951 5.56957L154.221 7.34152C155.328 6.66529 156.603 6.2953 157.909 6.27096C159.798 6.27096 160.667 7.13387 160.667 8.34747C160.667 9.79179 159.382 10.6547 157.512 10.6547H155.552L155.826 12.3851H157.385C159.892 12.3851 160.964 13.308 160.964 14.8954C160.964 16.3812 159.831 17.4287 157.828 17.4287C156.459 17.4144 155.118 17.0363 153.951 16.3351L153.625 18.1486C154.892 18.835 156.319 19.1895 157.767 19.1776C160.822 19.1776 162.929 17.4702 162.929 14.96C162.929 13.045 161.894 11.9329 160.062 11.4392" fill="#FFFCF5"/>
<path d="M174.692 10.6363H167.344V4.74829H165.36V18.947H167.344V12.4037H174.692V18.947H176.671V4.74829H174.692V10.6363Z" fill="#FFFCF5"/>
<path d="M189.034 4.74829L181.71 15.9014V4.74829H179.745V18.947H181.771L189.105 7.79383V18.947H191.055V4.74829H189.034Z" fill="#FFFCF5"/>
<path d="M56.2772 25.6887C55.9858 25.3792 55.6348 25.129 55.2442 24.9524C54.8535 24.7758 54.4311 24.6763 54.001 24.6597C51.824 24.6597 50.445 26.8147 50.445 29.1726C50.445 31.2169 51.4556 32.209 52.9573 32.209C53.8742 32.1724 54.7597 31.8723 55.5027 31.3461V32.5643C54.719 33.0454 53.8166 33.3101 52.8912 33.3303C50.5772 33.3303 49.1133 31.849 49.1133 29.3111C49.1133 26.2655 51.0967 23.5338 54.0577 23.5338C55.0087 23.5272 55.9304 23.8548 56.655 24.4567L56.2772 25.6887Z" fill="#FFFCF5"/>
<path d="M59.6207 33.3026C58.5251 33.3026 57.7554 32.5366 57.7554 31.0785C57.7554 28.3098 59.6066 26.5378 61.6325 26.5378C62.3472 26.5448 63.0546 26.6793 63.7198 26.9347L62.9925 31.4338V33.1688H61.9394L61.8639 32.0844C61.2075 32.7258 60.4472 33.3026 59.6207 33.3026ZM62.4022 27.6638C62.1004 27.5541 61.7797 27.5024 61.4578 27.5115C60.178 27.5115 58.9549 28.9281 58.9549 30.9308C58.9549 31.7799 59.2807 32.2736 59.8994 32.2736C60.518 32.2736 61.1791 31.7106 61.8733 30.9585L62.4022 27.6638Z" fill="#FFFCF5"/>
<path d="M69.9679 30.3124H67.1062L66.6433 33.1688H65.4297L66.5017 26.6208H67.7106L67.2714 29.2926H70.1427L70.5724 26.6208H71.7814L70.7094 33.1688H69.5051L69.9679 30.3124Z" fill="#FFFCF5"/>
<path d="M75.148 29.8833L74.6427 33.1688H73.4385L74.501 26.6208H75.71L75.1905 29.6387L78.057 26.6208H79.6013L76.4136 29.8002L78.7984 33.058L77.5376 33.261L75.148 29.8833Z" fill="#FFFCF5"/>
<path d="M90.2458 28.785L89.5327 33.1687H88.3096L89.0226 28.8035C89.0583 28.5944 89.0788 28.3832 89.084 28.1713C89.084 27.7375 88.8999 27.5391 88.5362 27.5391C88.0309 27.5391 87.469 27.936 86.3025 29.0896L85.6603 33.1687H84.4513L85.1691 28.8035C85.1994 28.594 85.2167 28.3829 85.2211 28.1713C85.2211 27.816 85.0416 27.5391 84.6733 27.5391C84.168 27.5391 83.606 27.936 82.4443 29.0896L81.7926 33.1687H80.5884L81.3865 28.3097V26.6208H82.4726L82.5435 27.9221C83.4407 27.0454 84.1302 26.4778 85.0558 26.4778C85.2453 26.4648 85.4354 26.4917 85.6133 26.5567C85.7912 26.6216 85.9528 26.7232 86.0871 26.8544C86.2214 26.9856 86.3253 27.1435 86.3918 27.3174C86.4583 27.4912 86.4858 27.677 86.4725 27.8621C87.2706 27.0408 87.9743 26.4778 88.9188 26.4778C89.1147 26.4702 89.3099 26.5038 89.4914 26.5763C89.6729 26.6489 89.8363 26.7586 89.9706 26.8982C90.1049 27.0377 90.207 27.2038 90.2699 27.3853C90.3329 27.5667 90.3552 27.7592 90.3355 27.9498C90.3255 28.2297 90.2971 28.5087 90.2505 28.785" fill="#FFFCF5"/>
<path d="M95.9744 29.8464H92.5317L92.6876 28.679H96.1397L95.9744 29.8464Z" fill="#FFFCF5"/>
<path d="M105.074 33.1688H103.785L105.131 24.8536H100.777L99.4259 33.1688H98.1367L99.6621 23.7H106.604L105.074 33.1688Z" fill="#FFFCF5"/>
<path d="M112.937 31.4522V32.5504C112.249 33.0348 111.424 33.2977 110.576 33.3026C108.97 33.3026 108.012 32.2874 108.012 30.5985C108.012 28.2636 109.462 26.4778 111.242 26.4778C112.659 26.4778 113.471 27.4653 113.471 29.0065C113.469 29.3471 113.436 29.6869 113.372 30.0217H109.254C109.254 30.1832 109.254 30.3401 109.254 30.4831C109.254 31.6229 109.783 32.2828 110.741 32.2828C111.552 32.2442 112.327 31.9458 112.947 31.4337L112.937 31.4522ZM109.452 29.1265H112.286C112.328 28.0282 112.002 27.373 111.18 27.373C110.359 27.373 109.764 28.1113 109.452 29.1265Z" fill="#FFFCF5"/>
<path d="M124.828 28.7849L124.11 33.1686H122.901L123.614 28.8034C123.651 28.5866 123.673 28.3677 123.681 28.1481C123.681 27.7144 123.501 27.5159 123.133 27.5159C122.627 27.5159 122.066 27.9128 120.904 29.0664L120.257 33.1456H119.048L119.766 28.7803C119.798 28.5709 119.817 28.3598 119.822 28.1481C119.822 27.7928 119.643 27.5159 119.275 27.5159C118.774 27.5159 118.207 27.9128 117.046 29.0664L116.394 33.1456H115.18L115.978 28.2865V26.6207H117.06L117.131 27.922C118.033 27.0453 118.717 26.4777 119.643 26.4777C119.833 26.4639 120.023 26.4902 120.201 26.5549C120.38 26.6196 120.542 26.7211 120.676 26.8526C120.81 26.984 120.914 27.1422 120.981 27.3164C121.047 27.4906 121.074 27.6767 121.06 27.862C121.862 27.0406 122.571 26.4777 123.506 26.4777C123.702 26.4709 123.896 26.505 124.078 26.5778C124.259 26.6506 124.422 26.7603 124.556 26.8997C124.69 27.0391 124.792 27.2049 124.855 27.386C124.919 27.5671 124.942 27.7593 124.923 27.9497C124.91 28.2296 124.88 28.5085 124.833 28.7849" fill="#FFFCF5"/>
<path d="M131.756 31.4522V32.5504C131.068 33.0351 130.243 33.298 129.395 33.3026C127.794 33.3026 126.845 32.2874 126.845 30.5985C126.845 28.2636 128.285 26.4778 130.07 26.4778C131.459 26.4778 132.285 27.4653 132.285 29.0065C132.284 29.3472 132.251 29.687 132.186 30.0217H128.068C128.068 30.1832 128.068 30.3401 128.068 30.4831C128.068 31.6229 128.601 32.2828 129.555 32.2828C130.362 32.2488 131.135 31.957 131.756 31.4522ZM128.261 29.1449H131.095C131.137 28.0467 130.821 27.3914 129.99 27.3914C129.159 27.3914 128.573 28.1298 128.266 29.1449" fill="#FFFCF5"/>
<path d="M134.797 28.3097V26.6208H135.878L135.935 27.5668C136.206 27.2534 136.538 26.9957 136.912 26.8088C137.286 26.6218 137.694 26.5093 138.112 26.4778C139.236 26.4778 140.11 27.2761 140.11 28.785C140.11 31.5168 138.311 33.2287 136.374 33.2287C135.978 33.2348 135.583 33.1804 135.203 33.0672L134.816 35.5313L133.579 35.7205L134.797 28.3097ZM136.426 32.2597C137.645 32.2597 138.877 31.0553 138.877 28.9419C138.877 28.079 138.556 27.5114 137.843 27.5114C137.205 27.5114 136.62 27.9359 135.954 28.6235L135.392 32.0659C135.722 32.2113 136.083 32.2777 136.445 32.2597" fill="#FFFCF5"/>
<path d="M148.18 24.369L146.428 24.6459C145.555 24.7843 145.12 24.9596 144.78 25.2919C144.249 25.9245 143.878 26.6708 143.699 27.4699C144.53 26.8423 145.158 26.547 145.961 26.547C147.236 26.547 147.973 27.4376 147.944 28.9742C147.902 31.4337 146.452 33.3118 144.506 33.3118C142.948 33.3118 142.145 32.1582 142.145 30.294C142.145 27.9314 142.924 25.5411 143.963 24.5305C144.412 24.0921 145.111 23.7507 146.438 23.543L148.048 23.2708L148.18 24.369ZM143.458 28.665C143.384 29.1973 143.346 29.7337 143.345 30.2709C143.345 31.6552 143.788 32.3566 144.591 32.3566C145.748 32.3566 146.688 30.9169 146.731 29.0803C146.731 28.0513 146.381 27.5714 145.677 27.5714C144.974 27.5714 144.483 27.8437 143.458 28.6697" fill="#FFFCF5"/>
<path d="M152.015 33.8655C151.297 35.2821 150.565 35.6651 149.46 35.6651C149.314 35.6635 149.168 35.6449 149.026 35.6098V34.5623C149.236 34.6096 149.452 34.6328 149.668 34.6315C149.906 34.621 150.135 34.5459 150.331 34.4147C150.528 34.2834 150.682 34.1012 150.778 33.8886L151.25 33.0395L150.003 26.7131L151.227 26.5193L152.062 31.6552L154.424 26.6162H155.713L152.015 33.8655Z" fill="#FFFCF5"/>
<path d="M157.546 28.3097V26.6208H158.632L158.684 27.5668C158.955 27.2538 159.287 26.9964 159.661 26.8095C160.034 26.6226 160.442 26.5098 160.861 26.4778C161.985 26.4778 162.854 27.2761 162.854 28.785C162.854 31.5168 161.059 33.2287 159.118 33.2287C158.723 33.2348 158.329 33.1803 157.952 33.0672L157.56 35.5313L156.313 35.7159L157.546 28.3097ZM159.175 32.2597C160.393 32.2597 161.63 31.0553 161.63 28.9419C161.63 28.079 161.309 27.5114 160.591 27.5114C159.959 27.5114 159.373 27.9359 158.703 28.6235L158.145 32.0659C158.475 32.2116 158.837 32.2781 159.198 32.2597" fill="#FFFCF5"/>
<path d="M167.798 26.4778C169.087 26.4778 169.734 27.1653 169.734 28.0744C169.734 29.2511 168.978 29.8279 167.373 30.2801C165.956 30.6769 165.659 30.9907 165.659 31.5306C165.659 31.9921 165.98 32.3012 166.603 32.3012C167.483 32.2309 168.329 31.9383 169.059 31.4522V32.5596C168.292 33.0294 167.409 33.2863 166.504 33.3026C165.186 33.3026 164.492 32.6289 164.492 31.646C164.492 30.4924 165.182 29.874 167.009 29.3387C168.402 28.9234 168.582 28.6097 168.582 28.1805C168.582 27.7514 168.27 27.5253 167.736 27.5253C166.948 27.5723 166.184 27.8135 165.517 28.2267V27.1146C166.217 26.714 167.01 26.4962 167.821 26.4824" fill="#FFFCF5"/>
<path d="M38.8845 19.0023C38.8836 22.7597 37.7424 26.4324 35.6053 29.5561C33.4682 32.6797 30.4311 35.114 26.8781 36.551C23.3252 37.9881 19.4159 38.3634 15.6446 37.6294C11.8734 36.8955 8.40957 35.0853 5.69118 32.4278C2.97279 29.7703 1.12193 26.3848 0.372666 22.6994C-0.376602 19.0141 0.00936897 15.1944 1.48177 11.7233C2.95417 8.2523 5.44687 5.28586 8.64466 3.19913C11.8424 1.11239 15.6017 -0.000911981 19.447 5.60537e-07C22.0004 2.65995e-07 24.5287 0.491576 26.8876 1.44664C29.2465 2.40171 31.3897 3.80156 33.1948 5.56621C34.9998 7.33085 36.4314 9.42572 37.4077 11.7311C38.3839 14.0365 38.8858 16.5073 38.8845 19.0023Z" fill="#FFA800"/>
<path d="M25.5011 2.43183C26.2185 3.46813 26.6257 4.67947 26.677 5.92958V7.83535L26.5873 16.5382C28.1879 17.4831 29.8945 18.2449 31.6733 18.8085C31.7253 18.8316 31.8292 18.8085 31.8197 18.8777C31.9378 18.8777 31.9567 19.0116 32.0511 19.0715C32.4597 19.097 32.843 19.2735 33.1231 19.5653C33.2116 19.6861 33.2565 19.8322 33.2506 19.9806C33.1678 20.2379 33.0203 20.4707 32.8214 20.6578C32.6225 20.8448 32.3788 20.9801 32.1125 21.0511C31.6681 21.1478 31.2189 21.2217 30.7666 21.2726C29.6852 21.4711 28.6699 21.8218 27.6262 22.0986C27.312 22.2034 27.0059 22.3298 26.7101 22.477L26.6817 22.7862L26.5826 25.661V25.6933C26.9691 25.7121 27.3563 25.6716 27.7301 25.5733C27.8387 25.5733 27.8576 25.6887 27.8954 25.7533C27.9284 26.0993 28.1551 26.4731 27.9851 26.8146C27.5276 27.0144 27.0421 27.1466 26.5448 27.2068C26.4362 27.2068 26.4173 27.3268 26.3748 27.396C26.5015 27.9771 26.5015 28.5777 26.3748 29.1587C26.274 29.5206 26.1397 29.8728 25.9734 30.2108C25.9214 30.4046 26.1481 30.4969 26.2661 30.6123C26.3842 30.7276 26.6392 30.843 26.6487 31.0414C26.6517 31.133 26.6302 31.2237 26.5863 31.3046C26.5424 31.3856 26.4776 31.4539 26.3984 31.5029C26.0631 31.669 25.8553 31.2814 25.5625 31.1937C25.0903 30.9399 24.618 31.2214 24.193 31.3737C24.1292 31.3852 24.0633 31.3767 24.0047 31.3493C23.9462 31.322 23.898 31.2772 23.8672 31.2214C23.8095 31.1185 23.7833 31.0016 23.7916 30.8845C23.9474 30.4831 24.4905 30.5707 24.6464 30.1924C24.3717 29.5605 24.2505 28.875 24.2922 28.1897C24.3205 27.899 24.4055 27.6221 24.4575 27.3452C24.4601 27.3074 24.4547 27.2695 24.4417 27.2338C24.4287 27.198 24.4084 27.1653 24.3819 27.1376C24.0177 27.0474 23.6488 26.9766 23.2768 26.9253C23.009 27.7331 22.6937 28.525 22.3324 29.2972C22.3324 29.3848 22.2474 29.4218 22.2521 29.5048C21.8899 30.1997 21.4563 30.8568 20.9581 31.466C20.058 32.587 18.9688 33.5498 17.7374 34.3131C17.0999 34.8945 16.4718 35.6605 15.4801 35.4528C14.6206 35.296 14.0634 34.4146 13.8886 33.6394C13.7045 33.0626 13.4825 32.4996 13.27 31.9274C12.5793 30.373 11.733 28.8892 10.7435 27.4975C10.4709 27.0473 10.1696 26.6142 9.84152 26.2009L9.77541 26.0763C8.90648 24.9457 8.14617 23.6998 6.94195 22.7493C6.34692 22.2001 5.29854 21.9048 5.20881 20.9958C5.1852 20.6451 5.10492 20.2113 5.47799 19.9852L5.61022 19.8791C5.62995 17.4215 6.17537 14.9952 7.21148 12.7558C8.24759 10.5164 9.75148 8.51345 11.6266 6.87554C13.5013 5.24095 15.7014 4.00248 18.0889 3.2378C20.4765 2.47312 22.9999 2.19873 25.5011 2.43183ZM24.3063 24.8258V24.8027V24.8534C24.104 25.0831 23.9442 25.3454 23.8341 25.6287C23.9871 25.6759 24.146 25.7023 24.3063 25.7071V24.8258ZM8.132 11.9976C7.51467 13.1233 7.03897 14.3179 6.71527 15.5553C6.3827 16.669 6.18148 17.8163 6.11552 18.9746C6.16275 19.1684 6.11552 19.473 6.16275 19.6806C6.78562 19.6444 7.4013 19.5313 7.99505 19.3438C8.00516 18.9546 8.03827 18.5664 8.09422 18.1809C8.49651 14.9854 9.92497 11.9968 12.1744 9.64421C13.7342 7.98947 15.646 6.68866 17.7754 5.83326C19.9048 4.97785 22.2001 4.58861 24.5 4.69291C24.6724 4.08082 24.8918 3.48231 25.1564 2.9025C21.7206 2.63414 18.2794 3.35184 15.2551 4.96751C12.2309 6.58318 9.75521 9.02651 8.132 11.9976ZM25.5011 3.11938L25.4728 3.23013V7.18471V10.5809V12.5467V15.8691C25.6894 16.0145 25.9167 16.1441 26.1528 16.2567C26.1506 16.2476 26.1506 16.2381 26.1528 16.229L26.2709 6.63098C26.31 5.96279 26.2479 5.29263 26.0867 4.64215C25.9792 4.10637 25.7813 3.59177 25.5011 3.11938ZM24.3583 5.17281C22.2183 5.08988 20.0849 5.45489 18.1011 6.24336C12.8119 8.25526 8.7837 13.6265 8.5523 19.1638V19.1869C9.24258 19.0365 9.91869 18.8297 10.5735 18.5686C10.7754 16.9877 11.2766 15.4573 12.0516 14.0556C13.2122 11.9261 14.9564 10.1542 17.0891 8.93831C19.2217 7.72238 21.6585 7.11041 24.1269 7.17087C24.1688 6.50613 24.2556 5.84483 24.3866 5.19127L24.3583 5.17281ZM24.0844 7.71537C20.9648 7.63575 17.9242 8.68053 15.5423 10.6506C13.1603 12.6207 11.6035 15.3783 11.1685 18.3978C11.9052 18.1256 12.5853 17.7841 13.3172 17.4473C13.4836 16.7812 13.7226 16.1346 14.0303 15.5184C14.9429 13.6855 16.3763 12.1482 18.1592 11.0901C19.9421 10.0321 21.9991 9.49807 24.0844 9.55193V7.71537ZM24.0844 10.0918C22.015 10.0305 19.9748 10.5809 18.2307 11.6709C16.4866 12.761 15.1198 14.3399 14.3089 16.2013C14.1689 16.4825 14.052 16.7742 13.9595 17.0735C14.6339 16.8281 15.3392 16.6729 16.0562 16.612C16.8128 16.5554 17.5734 16.6448 18.2947 16.8751C18.9661 16.2073 19.8379 15.766 20.7834 15.6153C21.577 15.6047 22.3677 15.5198 23.1446 15.3615C23.4467 15.2984 23.7378 15.1927 24.0088 15.0477L24.0844 10.4379V10.0918ZM23.9758 15.4769C23.4377 15.6706 22.8807 15.8098 22.3135 15.8922C21.5864 15.888 20.8621 15.9795 20.16 16.1644C19.6511 16.3413 19.1973 16.6432 18.8425 17.0412L19.3147 17.3734L21.9451 19.3392C23.0403 20.1157 24.0714 20.9751 25.0289 21.9094L25.1375 21.974C25.6924 21.2162 26.4771 20.648 27.3806 20.3497C28.2401 19.999 29.2696 20.0729 30.1669 19.8098C30.6476 19.6789 31.097 19.4562 31.4892 19.1546C30.9272 18.9469 30.3605 18.7624 29.8127 18.5316C27.814 17.6893 25.8969 16.6731 24.0844 15.4953L23.9758 15.4769ZM16.5521 16.935C15.5953 16.9689 14.6561 17.1968 13.7942 17.6041C12.6826 18.2351 11.5046 18.7471 10.2807 19.1315L7.86282 19.8052C9.11104 20.8103 10.2475 21.9409 11.2535 23.1784C12.5569 24.5996 13.4447 26.2101 14.5592 27.7098C15.3148 28.7711 15.8721 29.9109 16.5993 30.9722L16.996 30.8522C17.8628 30.4402 18.6695 29.9172 19.395 29.2972C20.2876 28.4752 20.9925 27.4782 21.4634 26.3716C21.6862 25.628 22.0136 24.9183 22.4363 24.2628C23.0344 23.4199 23.8356 22.7337 24.7691 22.2647V22.2371C24.146 21.6091 23.4886 21.0146 22.7999 20.4559L20.7126 18.9193C20.0656 18.3932 19.3997 17.9179 18.7339 17.438C18.0589 17.1045 17.3078 16.9457 16.5521 16.9766V16.935ZM31.8103 19.4776C30.8327 20.2251 29.5907 20.3313 28.3912 20.5482C27.792 20.6449 27.2187 20.8582 26.7053 21.1752C26.1918 21.4922 25.7486 21.9066 25.4019 22.3939V22.4447C25.4303 22.4216 25.4775 22.4447 25.5058 22.4124C25.7475 22.1527 26.0184 21.9205 26.3134 21.7202C27.3948 20.9035 28.7643 20.7973 30.0252 20.4236C30.5068 20.355 30.981 20.2438 31.4419 20.0913C31.6891 19.9911 31.9161 19.849 32.1125 19.6714C32.0134 19.5976 31.952 19.4638 31.8292 19.4315L31.8103 19.4776ZM7.50392 20.0959L7.14029 20.4836V20.5112C8.77126 22.2674 10.2364 24.1639 11.518 26.1778L12.878 28.4389L14.2192 30.8938L15.414 33.3302C15.8047 32.7386 16.1024 32.0931 16.2971 31.4152C16.0515 30.9953 15.8012 30.5661 15.5321 30.1647C14.7458 28.7849 13.8835 27.4478 12.9489 26.1593C11.6925 24.2654 10.2155 22.5202 8.54758 20.9588C8.21604 20.6419 7.8574 20.3532 7.47558 20.0959H7.50392ZM22.2993 25.3795C21.9852 26.1857 21.6192 26.9717 21.2037 27.7329C20.2073 29.4033 18.4694 30.6492 16.7929 31.489C16.5203 32.1539 16.2049 32.8012 15.8485 33.4271C16.5657 33.2038 17.2549 32.9019 17.9027 32.5273C19.2424 31.753 20.3058 30.5946 20.9487 29.2095L21.9687 26.87C22.5303 25.2868 23.5073 23.8754 24.8022 22.7769C23.7272 23.3889 22.8576 24.2931 22.2993 25.3795ZM26.1717 23.2615C26.0064 23.4091 25.8222 23.566 25.5861 23.506C25.5146 24.2439 25.5051 24.9862 25.5578 25.7256C25.7504 25.7528 25.946 25.7528 26.1386 25.7256L26.1717 23.2615ZM23.6358 25.9978C23.6027 25.9978 23.5933 26.067 23.6121 26.1086C23.5388 26.2378 23.4787 26.3738 23.4327 26.5146V26.5839C24.725 26.8498 26.058 26.867 27.357 26.6346C27.4468 26.5885 27.5837 26.6346 27.612 26.51C27.625 26.3496 27.5888 26.1889 27.5082 26.0486C27.2099 26.1064 26.9089 26.1495 26.6062 26.1778C25.6101 26.2464 24.6091 26.1937 23.6263 26.0209L23.6358 25.9978ZM25.2414 27.1376C25.2414 27.2345 25.1611 27.3268 25.1942 27.4191L25.9686 27.4468C25.9936 27.3484 26.0094 27.248 26.0159 27.1468C25.7656 27.1468 25.4775 27.1145 25.2461 27.1468L25.2414 27.1376ZM25.1705 27.6867C25.1183 27.7694 25.0998 27.8682 25.1186 27.9636C25.4303 28.0005 25.7372 27.9636 26.0395 28.0143L26.0678 27.9867C26.03 27.8944 26.0678 27.7882 26.0206 27.7144L25.1705 27.6867ZM25.1186 28.2312C25.0714 28.3143 25.1186 28.4204 25.1186 28.4942L26.0631 28.545L26.1103 28.5173C26.1288 28.4791 26.1384 28.4373 26.1384 28.395C26.1384 28.3527 26.1288 28.311 26.1103 28.2728C25.8034 28.2405 25.4444 28.2728 25.1422 28.222L25.1186 28.2312ZM25.1422 28.7573C25.0619 28.8357 25.1422 28.9557 25.1422 29.0295C25.4208 29.0295 25.6758 29.0295 25.9592 29.0618C26.1198 29.1034 26.0631 28.8957 26.1103 28.8219C25.8175 28.785 25.4492 28.7803 25.1375 28.7573H25.1422ZM25.1375 29.2972C25.0808 29.3802 25.1375 29.5002 25.1705 29.5786H25.8836C25.9072 29.4817 25.997 29.3987 25.945 29.2972C25.6806 29.2972 25.4019 29.2972 25.1375 29.2972ZM25.2272 29.8371L25.1989 29.8786C25.265 29.9709 25.3122 30.0955 25.4303 30.137C25.5483 30.1785 25.5578 30.2754 25.6192 30.2062C25.6796 30.0996 25.7226 29.9843 25.7467 29.8647L25.2272 29.8371ZM25.1847 30.2985L25.128 30.3954C25.128 30.5154 24.9769 30.6261 25.0242 30.7507C25.4091 30.7419 25.7822 30.8811 26.0631 31.1383C26.1292 31.1752 26.2378 31.226 26.2992 31.166C26.3606 31.106 26.252 30.9861 26.1906 30.9214C25.8825 30.6768 25.5466 30.4678 25.1894 30.2985" fill="#FFFCF5"/>
</g>
<defs>
<clipPath id="clip0">
<rect width="191.056" height="38" fill="white"/>
</clipPath>
</defs>
</svg>
